<?xml version="1.0" standalone="no"?>
<!DOCTYPE svg PUBLIC "-//W3C//DTD SVG 20010904//EN"
 "http://www.w3.org/TR/2001/REC-SVG-20010904/DTD/svg10.dtd">
<svg version="1.0" xmlns="http://www.w3.org/2000/svg"
 width="500.000000pt" height="500.000000pt" viewBox="0 0 500.000000 500.000000"
 preserveAspectRatio="xMidYMid meet">
<metadata>
Created by potrace 1.14, written by Peter Selinger 2001-2017
</metadata>
<g transform="translate(0.000000,500.000000) scale(0.100000,-0.100000)"
fill="#000000" stroke="none">
<path d="M4415 2800 l-170 -170 -166 166 -167 167 -35 -29 c-19 -16 -47 -44
-62 -62 l-28 -34 166 -166 167 -167 -167 -168 -168 -167 63 -62 62 -63 167
168 168 167 170 -170 170 -170 63 63 62 62 -170 170 -170 170 170 170 170 170
-63 63 -62 62 -170 -170z"/>
<path d="M650 2942 c-327 -86 -450 -490 -225 -740 56 -63 128 -109 206 -133
53 -17 94 -19 330 -19 l269 0 0 89 0 89 -262 4 -263 3 -57 28 c-100 49 -152
132 -152 242 0 111 51 192 154 246 43 23 54 24 313 27 l267 3 0 90 0 89 -257
-1 c-209 0 -270 -3 -323 -17z"/>
<path d="M2350 2870 l0 -90 340 0 c374 0 384 -1 433 -59 68 -82 50 -197 -42
-253 -35 -23 -42 -23 -383 -26 l-348 -3 0 -195 0 -194 90 0 90 0 0 105 0 105
233 0 c128 0 260 5 292 11 119 22 211 94 261 204 36 78 38 182 5 267 -29 75
-99 149 -176 185 l-60 28 -367 3 -368 3 0 -91z"/>
<path d="M3460 2505 l0 -455 90 0 90 0 0 455 0 455 -90 0 -90 0 0 -455z"/>
<path d="M1557 2504 c-136 -246 -246 -448 -244 -450 2 -2 223 -3 490 -2 l486
3 -237 447 c-130 246 -239 448 -242 448 -3 0 -117 -201 -253 -446z m356 -84
l98 -190 -205 0 c-113 0 -206 3 -206 7 0 10 204 373 210 373 3 0 49 -86 103
-190z"/>
</g>
</svg>
