<svg xmlns="http://www.w3.org/2000/svg" class="rewards-svg-renderer" viewBox="0 0 180 120" preserveAspectRatio="xMidYMid meet" focusable="false"><g clip-path="url(&quot;#animationMask_BF7omLXNGW&quot;)"><g style="display: block;" opacity="1" clip-path="url(&quot;#cp_UuugOxUG&quot;)" transform="matrix(-0.313, 0, 0, 0.313, 189.4, -34.9)"><g style="display: block;" opacity="1" transform="matrix(1, 0, 0, 1, -610, -193.143)"><g opacity="1" transform="matrix(1, 0, 0, 1, 1052, 643.143)"><path fill="rgb(56, 56, 56)" fill-opacity="1" d="M -8 -8 C -8 -8 0 8 0 8 C 0 8 8 8 8 8 C 8 8 8 -8 8 -8 C 8 -8 -8 -8 -8 -8 Z" /></g><g opacity="1" transform="matrix(1, 0, 0, 1, 836, 643.143)"><path fill="rgb(56, 56, 56)" fill-opacity="1" d="M -8 -8 C -8 -8 0 8 0 8 C 0 8 8 8 8 8 C 8 8 8 -8 8 -8 C 8 -8 -8 -8 -8 -8 Z" /></g><g opacity="1" transform="matrix(1, 0, 0, 1, 964, 643.143)"><path fill="rgb(31, 31, 31)" fill-opacity="1" d="M -8 -8 C -8 -8 0 8 0 8 C 0 8 8 8 8 8 C 8 8 8 -8 8 -8 C 8 -8 -8 -8 -8 -8 Z" /></g><g opacity="1" transform="matrix(1, 0, 0, 1, 748, 643.143)"><path fill="rgb(31, 31, 31)" fill-opacity="1" d="M -8 -8 C -8 -8 0 8 0 8 C 0 8 8 8 8 8 C 8 8 8 -8 8 -8 C 8 -8 -8 -8 -8 -8 Z" /></g><g opacity="1" transform="matrix(1, 0, 0, 1, 796, 491.143)"><path fill="url(#gr_t367WlIi3i)" fill-opacity="1" d="M 64 -144 C 64 -144 -56 -144 -56 -144 C -60.422 -144 -64 -140.422 -64 -136 C -64 -136 -64 136 -64 136 C -64 140.422 -60.422 144 -56 144 C -56 144 64 144 64 144" /><g opacity="1" transform="matrix(1, 0, 0, 1, 0, 0)" /></g><g opacity="1" transform="matrix(1, 0, 0, 1, 972, 491.143)"><path fill="rgb(167, 167, 167)" fill-opacity="1" d="M 144 -136 C 144 -140.422 140.422 -144 136 -144 C 136 -144 -136 -144 -136 -144 C -140.422 -144 -144 -140.422 -144 -136 C -144 -136 -144 136 -144 136 C -144 140.422 -140.422 144 -136 144 C -136 144 136 144 136 144 C 140.422 144 144 140.422 144 136 C 144 136 144 -136 144 -136 Z" /><path fill="url(#gr_a8YI23ywvI)" fill-opacity="1" d="M 144 -136 C 144 -140.422 140.422 -144 136 -144 C 136 -144 -136 -144 -136 -144 C -140.422 -144 -144 -140.422 -144 -136 C -144 -136 -144 136 -144 136 C -144 140.422 -140.422 144 -136 144 C -136 144 136 144 136 144 C 140.422 144 144 140.422 144 136 C 144 136 144 -136 144 -136 Z" /></g><g opacity="1" transform="matrix(1, 0, 0, 1, 776, 643.143)"><path fill="rgb(43, 43, 43)" fill-opacity="1" d="M -28 -8 C -28 -8 -20 8 -20 8 C -20 8 20 8 20 8 C 20 8 28 -8 28 -8 C 28 -8 -28 -8 -28 -8 Z" /><g opacity="1" transform="matrix(1, 0, 0, 1, 0, 0)" /></g><g opacity="1" transform="matrix(1, 0, 0, 1, 864, 643.143)"><path fill="rgb(98, 98, 98)" fill-opacity="1" d="M -28 -8 C -28 -8 -20 8 -20 8 C -20 8 20 8 20 8 C 20 8 28 -8 28 -8 C 28 -8 -28 -8 -28 -8 Z" /><g opacity="1" transform="matrix(1, 0, 0, 1, 0, 0)" /></g><g opacity="1" transform="matrix(1, 0, 0, 1, 1080, 643.143)"><path fill="rgb(98, 98, 98)" fill-opacity="1" d="M -28 -8 C -28 -8 -20 8 -20 8 C -20 8 20 8 20 8 C 20 8 28 -8 28 -8 C 28 -8 -28 -8 -28 -8 Z" /><g opacity="1" transform="matrix(1, 0, 0, 1, 0, 0)" /></g><g opacity="1" transform="matrix(1, 0, 0, 1, 992, 643.143)"><path fill="rgb(43, 43, 43)" fill-opacity="1" d="M -28 -8 C -28 -8 -20 8 -20 8 C -20 8 20 8 20 8 C 20 8 28 -8 28 -8 C 28 -8 -28 -8 -28 -8 Z" /><g opacity="1" transform="matrix(1, 0, 0, 1, 0, 0)" /></g><g opacity="1" transform="matrix(1, 0, 0, 1, 864, 637.143)"><path fill="rgb(56, 56, 56)" fill-opacity="1" d="M -28 -2 C -28 -2 -26 2 -26 2 C -26 2 26 2 26 2 C 26 2 28 -2 28 -2 C 28 -2 -28 -2 -28 -2 Z" /><g opacity="1" transform="matrix(1, 0, 0, 1, 0, 0)" /></g><g opacity="1" transform="matrix(1, 0, 0, 1, 776, 637.143)"><path fill="rgb(31, 31, 31)" fill-opacity="1" d="M -28 -2 C -28 -2 -26 2 -26 2 C -26 2 26 2 26 2 C 26 2 28 -2 28 -2 C 28 -2 -28 -2 -28 -2 Z" /><g opacity="1" transform="matrix(1, 0, 0, 1, 0, 0)" /></g><g opacity="1" transform="matrix(1, 0, 0, 1, 992, 637.143)"><path fill="rgb(31, 31, 31)" fill-opacity="1" d="M -28 -2 C -28 -2 -26 2 -26 2 C -26 2 26 2 26 2 C 26 2 28 -2 28 -2 C 28 -2 -28 -2 -28 -2 Z" /><g opacity="1" transform="matrix(1, 0, 0, 1, 0, 0)" /></g><g opacity="1" transform="matrix(1, 0, 0, 1, 1080, 637.143)"><path fill="rgb(56, 56, 56)" fill-opacity="1" d="M -28 -2 C -28 -2 -26 2 -26 2 C -26 2 26 2 26 2 C 26 2 28 -2 28 -2 C 28 -2 -28 -2 -28 -2 Z" /><g opacity="1" transform="matrix(1, 0, 0, 1, 0, 0)" /></g></g><g style="display: block;" opacity="1" transform="matrix(1, 0, 0, 1, 241.75, 177.75)"><g opacity="1" transform="matrix(1, 0, 0, 1, 120.25, 120.25)"><path fill="rgb(31, 31, 31)" fill-opacity="1" d="M 120 -116 C 120 -118.211 118.211 -120 116 -120 C 116 -120 -116 -120 -116 -120 C -118.211 -120 -120 -118.211 -120 -116 C -120 -116 -120 116 -120 116 C -120 118.211 -118.211 120 -116 120 C -116 120 116 120 116 120 C 118.211 120 120 118.211 120 116 C 120 116 120 -116 120 -116 Z" /><g opacity="1" transform="matrix(1, 0, 0, 1, 0, 0)" /></g><g opacity="1" transform="matrix(1, 0, 0, 1, 120.25, 120.25)"><path fill="url(#gr_P8lbQTOsHS)" fill-opacity="1" d="M -116 116 C -116 116 116 116 116 116 C 116 116 116 -116 116 -116 C 116 -116 -116 -116 -116 -116 C -116 -116 -116 116 -116 116 Z" /><g opacity="1" transform="matrix(1, 0, 0, 1, 0, 0)" /></g></g><g filter="url(#HgwCH5EbyL)" style="display: none;" opacity="0.0779156" transform="matrix(0.9828, 0, 0, 1, 246.221, 177.75)"><g opacity="1" transform="matrix(1, 0, 0, 1, 120.25, 120.25)"><path class="x-hidden-focus" fill="url(#gr_mxtljZ8hGz)" fill-opacity="1" d="M -116 116 C -116 116 116 116 116 116 C 116 116 116 -116 116 -116 C 116 -116 -116 -116 -116 -116 C -116 -116 -116 116 -116 116 Z" /></g></g><g style="display: block;" opacity="1" transform="matrix(1, 0, 0, 1, 245.75, 181.75)"><g opacity="1" transform="matrix(1, 0, 0, 1, 116.25, 116.25)"><path fill="rgb(117, 117, 117)" fill-opacity="1" d="M -116 116 C -116 116 -99.361 116 -99.361 116 C -99.361 116 116 116 116 116 C 116 116 116 -116 116 -116 C 116 -116 -99.884 -116 -99.884 -116 C -99.884 -116 -116 -116 -116 -116 C -116 -116 -116 116 -116 116 Z" /></g></g><g style="display: block;" opacity="1" transform="matrix(1, 0, 0, 1, 245.75, 181.75)"><g opacity="1" transform="matrix(1, 0, 0, 1, 116.25, 116.25)"><path fill="rgb(167, 167, 167)" fill-opacity="1" d="M -116 116 C -116 116 116 116 116 116 C 116 116 116 -116 116 -116 C 116 -116 -116 -116 -116 -116 C -116 -116 -116 116 -116 116 Z" /><path fill="url(#gr_qK4EeLHITj)" fill-opacity="1" d="M -116 116 C -116 116 116 116 116 116 C 116 116 116 -116 116 -116 C 116 -116 -116 -116 -116 -116 C -116 -116 -116 116 -116 116 Z" /></g><g opacity="1" transform="matrix(1, 0, 0, 1, 216.25, 180.25)"><path fill="rgb(117, 117, 117)" fill-opacity="1" d="M 4 -16 C 4 -16 -4 -16 -4 -16 C -4 -16 -4 16 -4 16 C -4 16 4 16 4 16 C 4 16 4 -16 4 -16 Z" /></g><g opacity="1" transform="matrix(1, 0, 0, 1, 228.25, 180.25)"><path fill="rgb(242, 242, 242)" fill-opacity="1" d="M 27.036 -16.09 C 27.036 -16.09 -8 -16 -8 -16 C -8 -16 -8 16 -8 16 C -8 16 26.195 15.817 26.195 15.817 C 26.195 15.817 27.024 15.812 27.024 15.812 C 27.024 15.812 27.036 -16.09 27.036 -16.09 Z" /></g><g opacity="1" transform="matrix(1, 0, 0, 1, 216.25, 20.25)"><path fill="rgb(117, 117, 117)" fill-opacity="1" d="M 4 -16 C 4 -16 -4 -16 -4 -16 C -4 -16 -4 16.188 -4 16.188 C -4 16.188 4 16.188 4 16.188 C 4 16.188 4 -16 4 -16 Z" /></g><g opacity="1" transform="matrix(1, 0, 0, 1, 228.25, 20.25)"><path fill="rgb(242, 242, 242)" fill-opacity="1" d="M 26.875 15.983 C 26.875 15.983 -8 16.188 -8 16.188 C -8 16.188 -8 -16 -8 -16 C -8 -16 26.633 -16.259 26.633 -16.259 C 26.633 -16.259 26.875 15.983 26.875 15.983 Z" /></g><g opacity="1" transform="matrix(1, 0, 0, 1, 248.75, 212.25)"><path fill="rgb(242, 242, 242)" fill-opacity="1" d="M -6.762 12.467 C -6.762 12.467 6.691 12.406 6.691 12.406 C 6.691 12.406 6.577 -16.297 6.577 -16.297 C 6.577 -16.297 -6.95 -16.036 -6.95 -16.036 C -6.95 -16.036 -6.762 12.467 -6.762 12.467 Z" /></g><g opacity="1" transform="matrix(1, 0, 0, 1, 237.66, 212.25)"><path fill="rgb(117, 117, 117)" fill-opacity="1" d="M 4.781 -16 C 4.781 -16 -1.5 -16 -1.5 -16 C -1.5 -16 -1.5 12.5 -1.5 12.5 C -1.5 12.5 4.781 12.5 4.781 12.5 C 4.781 12.5 4.781 -16 4.781 -16 Z" /></g><g opacity="1" transform="matrix(1, 0, 0, 1, 244.25, 52.25)"><path fill="rgb(242, 242, 242)" fill-opacity="1" d="M -6.008 16.023 C -6.008 16.023 10.965 15.759 10.965 15.759 C 10.965 15.759 10.723 -16.296 10.723 -16.296 C 10.723 -16.296 -4.5 -16 -4.5 -16 C -4.5 -16 -6.008 16.023 -6.008 16.023 Z" /></g><g opacity="1" transform="matrix(1, 0, 0, 1, 235.75, 52.25)"><path fill="rgb(117, 117, 117)" fill-opacity="1" d="M 5.812 -16 C 5.812 -16 -0.625 -16 -0.625 -16 C -0.625 -16 -0.625 16 -0.625 16 C -0.625 16 5.812 16 5.812 16 C 5.812 16 5.812 -16 5.812 -16 Z" /></g></g><g style="display: block;" opacity="1" transform="matrix(0.9, 0, 0, 0.9, 388.575, 204.975)"><g opacity="1" transform="matrix(1, 0, 0, 1, 18.25, 32.25)"><path fill="rgb(31, 31, 31)" fill-opacity="1" d="M 18 32 C 18 32 12.523 31.991 12.523 31.991 C -5.15 31.991 -19.477 17.664 -19.477 -0.009 C -19.477 -17.682 -5.15 -32.009 12.523 -32.009 C 12.523 -32.009 18 -32 18 -32 C 18 -32 18 32 18 32 Z" /><g opacity="1" transform="matrix(1, 0, 0, 1, 0, 0)" /></g></g><g style="display: block;" opacity="1" transform="matrix(1, 0, 0, 1, 300, 300)"><g opacity="1" transform="matrix(1, 0, 0, 1, 120.315, -65.81)"><path fill="rgb(56, 56, 56)" fill-opacity="1" d="M 0 -28.565 C 15.765 -28.565 28.565 -15.765 28.565 0 C 28.565 15.765 15.765 28.565 0 28.565 C -15.765 28.565 -28.565 15.765 -28.565 0 C -28.565 -15.765 -15.765 -28.565 0 -28.565 Z" /></g><g opacity="1" transform="matrix(1, 0, 0, 1, 0, 0.25)"><path fill-opacity="0" stroke="rgb(255, 255, 255)" stroke-dasharray="" stroke-dashoffset="0" stroke-linecap="round" stroke-linejoin="miter" stroke-miterlimit="4" stroke-opacity="1" stroke-width="2" d="M 121 -84.625 C 121 -84.625 121 -90.875 121 -90.875" /><path fill-opacity="0" stroke="rgb(255, 255, 255)" stroke-dasharray="" stroke-dashoffset="0" stroke-linecap="round" stroke-linejoin="miter" stroke-miterlimit="4" stroke-opacity="1" stroke-width="2" d="M 121 -84.625 C 121 -84.625 121 -90.875 121 -90.875" /></g><g opacity="1" transform="matrix(1, 0, 0, 1, 0, 0)"><path fill-opacity="0" stroke="rgb(255, 255, 255)" stroke-dasharray="" stroke-dashoffset="0" stroke-linecap="round" stroke-linejoin="miter" stroke-miterlimit="4" stroke-opacity="1" stroke-width="2" d="M 121 -48.625 C 121 -48.625 121 -40.25 121 -40.25" /></g><g opacity="1" transform="matrix(1, 0, 0, 1, 0, 0)"><path fill-opacity="0" stroke="rgb(255, 255, 255)" stroke-dasharray="" stroke-dashoffset="0" stroke-linecap="round" stroke-linejoin="miter" stroke-miterlimit="4" stroke-opacity="1" stroke-width="2" d="M 112.5 -50.875 C 112.5 -50.875 108.25 -43.625 108.25 -43.625" /></g><g opacity="1" transform="matrix(1, 0, 0, 1, 0, 0)"><path fill-opacity="0" stroke="rgb(255, 255, 255)" stroke-dasharray="" stroke-dashoffset="0" stroke-linecap="round" stroke-linejoin="miter" stroke-miterlimit="4" stroke-opacity="1" stroke-width="2" d="M 106 -57.5 C 106 -57.5 98.5 -52.5 98.5 -52.5" /></g><g opacity="1" transform="matrix(1, 0, 0, 1, 0, 0)"><path fill-opacity="0" stroke="rgb(255, 255, 255)" stroke-dasharray="" stroke-dashoffset="0" stroke-linecap="round" stroke-linejoin="miter" stroke-miterlimit="4" stroke-opacity="1" stroke-width="2" d="M 103.625 -65.875 C 103.625 -65.875 95.375 -65.875 95.375 -65.875" /></g><g opacity="1" transform="matrix(1, 0, 0, 1, 0, 0)"><path fill-opacity="0" stroke="rgb(255, 255, 255)" stroke-dasharray="" stroke-dashoffset="0" stroke-linecap="round" stroke-linejoin="miter" stroke-miterlimit="4" stroke-opacity="1" stroke-width="2" d="M 98.875 -79.125 C 98.875 -79.125 106 -74.75 106 -74.75" /></g><g opacity="1" transform="matrix(1, 0, 0, 1, 0, 0)"><path fill-opacity="0" stroke="rgb(255, 255, 255)" stroke-dasharray="" stroke-dashoffset="0" stroke-linecap="round" stroke-linejoin="miter" stroke-miterlimit="4" stroke-opacity="1" stroke-width="2" d="M 108.25 -88.375 C 108.25 -88.375 112.375 -81.375 112.375 -81.375" /></g><g opacity="1" transform="matrix(1, 0, 0, 1, 0, 0)"><path fill-opacity="0" stroke="rgb(255, 255, 255)" stroke-dasharray="" stroke-dashoffset="0" stroke-linecap="round" stroke-linejoin="miter" stroke-miterlimit="4" stroke-opacity="1" stroke-width="2" d="M 134.125 -88.125 C 134.125 -88.125 130 -81.25 130 -81.25" /></g><g opacity="1" transform="matrix(1, 0, 0, 1, 0, 0)"><path fill-opacity="0" stroke="rgb(255, 255, 255)" stroke-dasharray="" stroke-dashoffset="0" stroke-linecap="round" stroke-linejoin="miter" stroke-miterlimit="4" stroke-opacity="1" stroke-width="2" d="M 136.5 -74.625 C 136.5 -74.625 143.375 -79.125 143.375 -79.125" /></g><g opacity="1" transform="matrix(1, 0, 0, 1, 0, 0)"><path fill-opacity="0" stroke="rgb(255, 255, 255)" stroke-dasharray="" stroke-dashoffset="0" stroke-linecap="round" stroke-linejoin="miter" stroke-miterlimit="4" stroke-opacity="1" stroke-width="2" d="M 139.25 -66 C 139.25 -66 146.75 -66 146.75 -66" /></g><g opacity="1" transform="matrix(1, 0, 0, 1, 0, 0)"><path fill-opacity="0" stroke="rgb(255, 255, 255)" stroke-dasharray="" stroke-dashoffset="0" stroke-linecap="round" stroke-linejoin="miter" stroke-miterlimit="4" stroke-opacity="1" stroke-width="2" d="M 136.75 -57 C 136.75 -57 143.375 -52.875 143.375 -52.875" /></g><g opacity="1" transform="matrix(1, 0, 0, 1, 0, 0)"><path fill-opacity="0" stroke="rgb(255, 255, 255)" stroke-dasharray="" stroke-dashoffset="0" stroke-linecap="round" stroke-linejoin="miter" stroke-miterlimit="4" stroke-opacity="1" stroke-width="2" d="M 130.125 -50.375 C 130.125 -50.375 134.125 -43.625 134.125 -43.625" /></g></g><g style="display: block;" opacity="1" transform="matrix(0.9, 0, 0, 0.9, 406.575, 219.375)"><g opacity="1" transform="matrix(1, 0, 0, 1, 16.25, 16.25)"><path fill="rgb(43, 43, 43)" fill-opacity="1" d="M 16 0 C 16 8.836 8.837 16 0 16 C -8.837 16 -16 8.836 -16 0 C -16 -8.836 -8.837 -16 0 -16 C 8.837 -16 16 -8.836 16 0 Z" /><g opacity="1" transform="matrix(1, 0, 0, 1, 0, 0)" /></g><g opacity="1" transform="matrix(1, 0, 0, 1, 24.25, 16.25)"><path fill="rgb(31, 31, 31)" fill-opacity="1" d="M 12 0 C 12 6.627 6.627 12 0 12 C -6.627 12 -12 6.627 -12 0 C -12 -6.627 -6.627 -12 0 -12 C 6.627 -12 12 -6.627 12 0 Z" /><g opacity="1" transform="matrix(1, 0, 0, 1, 0, 0)" /></g><g opacity="1" transform="matrix(1, 0, 0, 1, 24.25, 16.25)"><path fill="rgb(204, 204, 204)" fill-opacity="1" d="M 8 0 C 8 4.418 4.418 8 0 8 C -4.418 8 -8 4.418 -8 0 C -8 -4.418 -4.418 -8 0 -8 C 4.418 -8 8 -4.418 8 0 Z" /><g opacity="1" transform="matrix(1, 0, 0, 1, 0, 0)" /></g></g><g style="display: block;" opacity="1" transform="matrix(1, 0, 0, 1, 289.913, 289.75)"><g opacity="1" transform="matrix(1, 0, 0, 1, 20.25, 24.25)"><path fill="rgb(204, 204, 204)" fill-opacity="1" d="M 20 24 C 20 24 4 24 4 24 C -9.255 24 -20 13.255 -20 0 C -20 -13.255 -9.255 -24 4 -24 C 4 -24 20 -24 20 -24 C 20 -24 20 24 20 24 Z" /><g opacity="1" transform="matrix(1, 0, 0, 1, 0, 0)" /></g></g><g style="display: block;" opacity="1" transform="matrix(1, 0, 0, 1, 255.789, 267.898)"><g opacity="1" transform="matrix(1, 0, 0, 1, 74.656, 65.176)"><path fill="rgb(228, 228, 228)" fill-opacity="1" d="M 72.75 -61.073 C 71.093 -63.943 67.424 -64.926 64.554 -63.269 C 63.017 -62.382 62.027 -60.915 61.688 -59.305 C 61.688 -59.305 18.496 -34.368 18.496 -34.368 C 18.496 -34.368 18.494 -34.371 18.494 -34.371 C 18.494 -34.371 18.496 -34.368 18.496 -34.368 C 14.094 -39.686 7.442 -43.074 0 -43.074 C -7.382 -43.074 -13.982 -39.739 -18.385 -34.496 C -18.385 -34.496 -61.688 -59.305 -61.688 -59.305 C -62.027 -60.915 -63.017 -62.382 -64.554 -63.269 C -67.423 -64.926 -71.093 -63.943 -72.749 -61.073 C -74.406 -58.203 -73.423 -54.534 -70.554 -52.877 C -69.017 -51.99 -67.252 -51.866 -65.688 -52.377 C -65.688 -52.377 -22.71 -27.564 -22.71 -27.564 C -22.71 -27.564 -22.497 -27.444 -22.497 -27.444 C -23.467 -24.838 -24 -22.018 -24 -19.074 C -24 -7.186 -15.355 2.676 -4.011 4.586 C -4.011 4.586 -4.282 4.588 -4.282 4.588 C -4.282 4.588 -4.282 54.463 -4.282 54.463 C -5.507 55.562 -6.282 57.152 -6.282 58.926 C -6.282 62.24 -3.596 64.926 -0.282 64.926 C 3.032 64.926 5.718 62.24 5.718 58.926 C 5.718 57.152 4.943 55.562 3.718 54.463 C 3.718 54.463 3.718 4.638 3.718 4.638 C 3.799 4.625 3.879 4.609 3.959 4.595 C 3.959 4.595 4.004 4.595 4.004 4.595 C 4.079 4.582 4.153 4.564 4.229 4.547 C 15.466 2.549 24 -7.262 24 -19.074 C 24 -22.017 23.468 -24.836 22.498 -27.441 C 22.498 -27.441 65.688 -52.377 65.688 -52.377 C 67.252 -51.866 69.017 -51.99 70.554 -52.877 C 73.424 -54.534 74.406 -58.203 72.75 -61.073 Z" /><g opacity="1" transform="matrix(1, 0, 0, 1, 0, 0)" /></g></g><g style="display: block;" opacity="1" transform="matrix(1, 0, 0, 1, 313.913, 297.75)"><g opacity="1" transform="matrix(1, 0, 0, 1, 16.25, 16.25)"><path fill="rgb(117, 117, 117)" fill-opacity="1" d="M 16 0 C 16 8.837 8.837 16 0 16 C -8.836 16 -16 8.837 -16 0 C -16 -8.837 -8.836 -16 0 -16 C 8.837 -16 16 -8.837 16 0 Z" /><g opacity="1" transform="matrix(1, 0, 0, 1, 0, 0)" /></g><g opacity="1" transform="matrix(1, 0, 0, 1, 23.157, 16.392)"><path fill="rgb(56, 56, 56)" fill-opacity="1" d="M -6.82 -16 C -7.656 -16 -8.376 -15.646 -9.18 -15.523 C -1.516 -14.34 4.46 -8 4.46 0 C 4.46 8 -1.516 14.34 -9.18 15.523 C -8.376 15.646 -7.656 16 -6.82 16 C 2.016 16 9.18 8.836 9.18 0 C 9.18 -8.838 2.016 -16 -6.82 -16 Z" /><g opacity="1" transform="matrix(1, 0, 0, 1, 0, 0)" /></g></g></g></g><defs><clipPath id="animationMask_BF7omLXNGW"><rect x="0" y="0" width="180" height="120" /></clipPath><clipPath id="cp_UuugOxUG"><path d="M 0 0 L 600 0 L 600 600 L 0 600 Z" /></clipPath><linearGradient id="gr_qK4EeLHITj" gradientUnits="userSpaceOnUse" spreadMethod="pad" x1="-140.707" y1="0" x2="145.074" y2="0"><stop stop-color="rgb(168, 168, 168)" offset="0%" /><stop stop-color="rgb(201, 201, 201)" offset="50%" /><stop stop-color="rgb(234, 234, 234)" offset="100%" /></linearGradient><filter id="HgwCH5EbyL" x="-100%" y="-100%" width="400%" height="400%" filterUnits="objectBoundingBox"><feGaussianBlur result="drop_shadow_1" in="SourceAlpha" stdDeviation="12.5" /><feOffset result="drop_shadow_2" in="drop_shadow_1" dx="-20" dy="2.449294E-15" /><feFlood flood-color="rgb(219, 255, 56)" flood-opacity="0.7" result="drop_shadow_3" /><feComposite result="drop_shadow_4" in="drop_shadow_3" in2="drop_shadow_2" operator="in" /><feMerge><feMergeNode /><feMergeNode in="SourceGraphic" /></feMerge></filter><linearGradient id="gr_mxtljZ8hGz" gradientUnits="userSpaceOnUse" spreadMethod="pad" x1="-116.723" y1="0" x2="572.361" y2="0"><stop stop-color="rgb(197, 218, 74)" offset="0%" /><stop stop-color="rgb(154, 179, 37)" offset="50%" /><stop stop-color="rgb(110, 139, 0)" offset="100%" /></linearGradient><linearGradient id="gr_P8lbQTOsHS" gradientUnits="userSpaceOnUse" spreadMethod="pad" x1="-116.723" y1="0" x2="-65.199" y2="0"><stop stop-color="rgb(175, 196, 58)" offset="0%" /><stop stop-color="rgb(114, 131, 29)" offset="50%" /><stop stop-color="rgb(53, 67, 0)" offset="100%" /></linearGradient><linearGradient id="gr_t367WlIi3i" gradientUnits="userSpaceOnUse" spreadMethod="pad" x1="-65.969" y1="0" x2="30.914" y2="0"><stop stop-color="rgb(117, 117, 117)" offset="0%" /><stop stop-color="rgb(117, 117, 117)" offset="50%" /><stop stop-color="rgb(117, 117, 117)" offset="100%" /></linearGradient><linearGradient id="gr_a8YI23ywvI" gradientUnits="userSpaceOnUse" spreadMethod="pad" x1="-140.707" y1="0" x2="145.074" y2="0"><stop stop-color="rgb(168, 168, 168)" offset="0%" /><stop stop-color="rgb(194, 194, 194)" offset="50%" /><stop stop-color="rgb(220, 220, 220)" offset="100%" /></linearGradient></defs></svg>