<svg xmlns="http://www.w3.org/2000/svg" viewBox="0 0 820 340" font-family="Segoe UI, Arial, sans-serif">
  <!-- Background -->
  <rect width="820" height="340" fill="#f9f9f9" rx="10"/>

  <!-- Title -->
  <text x="410" y="30" text-anchor="middle" font-size="17" font-weight="600" fill="#333">AI Cashflow Forecasting Architecture</text>

  <!-- Step 1: ERP Data Ingestion -->
  <rect x="20" y="55" width="170" height="130" rx="10" fill="#e8f0fe" stroke="#0078D4" stroke-width="2"/>
  <text x="105" y="78" text-anchor="middle" font-size="13" font-weight="600" fill="#0078D4">ERP Data Ingestion</text>
  <line x1="35" y1="88" x2="175" y2="88" stroke="#0078D4" stroke-width="0.5" opacity="0.4"/>
  <text x="105" y="108" text-anchor="middle" font-size="11" fill="#444">Dynamics 365</text>
  <text x="105" y="124" text-anchor="middle" font-size="11" fill="#444">SAP</text>
  <text x="105" y="140" text-anchor="middle" font-size="11" fill="#444">FinanceOne</text>
  <text x="105" y="156" text-anchor="middle" font-size="11" fill="#444">Other ERPs</text>
  <text x="105" y="175" text-anchor="middle" font-size="10" fill="#777">AP / AR / Budgets</text>

  <!-- Arrow 1 -->
  <line x1="190" y1="120" x2="230" y2="120" stroke="#666" stroke-width="2" marker-end="url(#arrow)"/>

  <!-- Step 2: Preprocessing -->
  <rect x="230" y="70" width="160" height="100" rx="10" fill="#e8f4e8" stroke="#2e7d32" stroke-width="2"/>
  <text x="310" y="96" text-anchor="middle" font-size="12" font-weight="600" fill="#2e7d32">Data Preprocessing</text>
  <text x="310" y="114" text-anchor="middle" font-size="12" font-weight="600" fill="#2e7d32">&amp; Feature Engineering</text>
  <line x1="245" y1="122" x2="375" y2="122" stroke="#2e7d32" stroke-width="0.5" opacity="0.4"/>
  <text x="310" y="140" text-anchor="middle" font-size="10" fill="#555">Seasonality</text>
  <text x="310" y="154" text-anchor="middle" font-size="10" fill="#555">Economic indicators</text>
  <text x="310" y="168" text-anchor="middle" font-size="10" fill="#555">Exchange rates</text>

  <!-- Arrow 2 (down to AI model) -->
  <line x1="310" y1="170" x2="310" y2="210" stroke="#666" stroke-width="2" marker-end="url(#arrow)"/>

  <!-- Step 3: Hybrid AI Model -->
  <rect x="215" y="210" width="190" height="110" rx="10" fill="#f3e5f5" stroke="#7b1fa2" stroke-width="2"/>
  <text x="310" y="236" text-anchor="middle" font-size="13" font-weight="600" fill="#7b1fa2">Hybrid AI Model</text>
  <line x1="230" y1="244" x2="390" y2="244" stroke="#7b1fa2" stroke-width="0.5" opacity="0.4"/>
  <text x="310" y="264" text-anchor="middle" font-size="11" fill="#555">LSTM (temporal)</text>
  <text x="310" y="280" text-anchor="middle" font-size="11" fill="#555">Transformer (sequence)</text>
  <text x="310" y="296" text-anchor="middle" font-size="11" fill="#555">XGBoost (tabular)</text>

  <!-- Arrow 3 -->
  <line x1="405" y1="265" x2="450" y2="265" stroke="#666" stroke-width="2" marker-end="url(#arrow)"/>

  <!-- Step 4: Cashflow Forecasts -->
  <rect x="450" y="210" width="170" height="110" rx="10" fill="#fff3e0" stroke="#e65100" stroke-width="2"/>
  <text x="535" y="236" text-anchor="middle" font-size="13" font-weight="600" fill="#e65100">Cashflow Forecasts</text>
  <line x1="465" y1="244" x2="605" y2="244" stroke="#e65100" stroke-width="0.5" opacity="0.4"/>
  <text x="535" y="264" text-anchor="middle" font-size="11" fill="#555">Multi-horizon</text>
  <text x="535" y="280" text-anchor="middle" font-size="11" fill="#555">predictions</text>
  <text x="535" y="296" text-anchor="middle" font-size="11" fill="#555">with confidence bands</text>

  <!-- Arrow 4 -->
  <line x1="620" y1="265" x2="650" y2="265" stroke="#666" stroke-width="2" marker-end="url(#arrow)"/>

  <!-- Step 5: Integration into CAPIX -->
  <rect x="650" y="70" width="150" height="250" rx="10" fill="#e3f2fd" stroke="#0078D4" stroke-width="2"/>
  <text x="725" y="96" text-anchor="middle" font-size="13" font-weight="600" fill="#0078D4">Integration into</text>
  <text x="725" y="114" text-anchor="middle" font-size="13" font-weight="600" fill="#0078D4">CAPIX Software</text>
  <line x1="665" y1="122" x2="785" y2="122" stroke="#0078D4" stroke-width="0.5" opacity="0.4"/>
  <text x="725" y="144" text-anchor="middle" font-size="11" fill="#555">API or embedded</text>
  <text x="725" y="160" text-anchor="middle" font-size="11" fill="#555">module</text>
  <text x="725" y="186" text-anchor="middle" font-size="11" fill="#555">Treasury</text>
  <text x="725" y="202" text-anchor="middle" font-size="11" fill="#555">dashboard</text>
  <text x="725" y="228" text-anchor="middle" font-size="11" fill="#555">Power BI</text>
  <text x="725" y="244" text-anchor="middle" font-size="11" fill="#555">reporting</text>

  <!-- Arrow from ERP box to CAPIX (top) -->
  <line x1="190" y1="80" x2="650" y2="80" stroke="#0078D4" stroke-width="1.5" stroke-dasharray="6 3" opacity="0.4"/>

  <!-- Arrow marker -->
  <defs>
    <marker id="arrow" markerWidth="8" markerHeight="6" refX="8" refY="3" orient="auto">
      <polygon points="0 0, 8 3, 0 6" fill="#666"/>
    </marker>
  </defs>
</svg>
